# xmcd
#
# Track frame offsets:
#	182
#	10902
#	24177
#	34902
#	54857
#	72400
#	82125
#	98512
#	113270
#	126847
#
# Disc length: 1895 seconds
#
# Revision: 1
# Processed by: cddbd v1.4PL0 Copyright (c) Steve Scherf et al.
# Submitted via: CDmax 1.8
#
DISCID=7007650a
DTITLE=Gino Paoli - C'Era Una Volta Una Gatta
DYEAR=1900
DGENRE=Blues
TTITLE0=Sapore Di Sale
TTITLE1=Senza fine
TTITLE2=La Gatta
TTITLE3=Sassi
TTITLE4=Non Andare Via
TTITLE5=Il Cielo In Una Stanza
TTITLE6=Parigi Con Le Gambe Aperte
TTITLE7=Mediterraneo
TTITLE8=Un Uomo Vivo
TTITLE9=Devi Sapere
EXTD=
EXTT0=
EXTT1=
EXTT2=
EXTT3=
EXTT4=
EXTT5=
EXTT6=
EXTT7=
EXTT8=
EXTT9=
PLAYORDER=
